<?xml version="1.0" encoding="UTF-8" standalone="no"?>
<svg
   width="34"
   height="33"
   viewBox="0 0 34 33"
   fill="none"
   version="1.1"
   id="svg19"
   sodipodi:docname="guitarra.svg"
   inkscape:version="1.2.2 (732a01da63, 2022-12-09)"
   xmlns:inkscape="http://www.inkscape.org/namespaces/inkscape"
   xmlns:sodipodi="http://sodipodi.sourceforge.net/DTD/sodipodi-0.dtd"
   xmlns="http://www.w3.org/2000/svg"
   xmlns:svg="http://www.w3.org/2000/svg">
  <defs
     id="defs23" />
  <sodipodi:namedview
     id="namedview21"
     pagecolor="#ffffff"
     bordercolor="#000000"
     borderopacity="0.25"
     inkscape:showpageshadow="2"
     inkscape:pageopacity="0.0"
     inkscape:pagecheckerboard="0"
     inkscape:deskcolor="#d1d1d1"
     showgrid="false"
     inkscape:zoom="14.969697"
     inkscape:cx="16.967611"
     inkscape:cy="16.5"
     inkscape:window-width="1366"
     inkscape:window-height="697"
     inkscape:window-x="-8"
     inkscape:window-y="-8"
     inkscape:window-maximized="1"
     inkscape:current-layer="svg19" />
  <path
     d="M33.375 2.4375L31.5625 0.625C31.1875 0.25 30.6875 0 30.125 0C29.5625 0 29.0625 0.25 28.6875 0.625L25.8125 3.5C25.5625 3.75 25.375 4.0625 25.25 4.375L24.5 6.625L19.75 11.4375C19 10.875 18.1875 10.4375 17.25 10.25C15.125 9.75 13.0625 10.1875 11.625 11.625C11.0625 12.1875 10.625 12.875 10.375 13.6875C10 14.875 8.9375 15.75 7.75 15.875C6.25 16 4.875 16.5625 3.8125 17.625C0.9375 20.4375 1.5 25.5625 4.9375 29.0625C8.4375 32.5 13.5625 33 16.375 30.1875C17.4375 29.125 18 27.75 18.1875 26.25C18.25 25.0625 19.125 24 20.3125 23.625C21.125 23.375 21.8125 22.9375 22.375 22.375C23.8125 20.9375 24.25 18.875 23.75 16.75C23.5625 15.875 23.125 15 22.5625 14.25L27.375 9.5L29.625 8.75C29.9375 8.625 30.25 8.4375 30.5 8.1875L33.375 5.3125C33.75 4.9375 33.9375 4.4375 33.9375 3.875C33.9375 3.3125 33.75 2.8125 33.375 2.4375ZM15 22C13.3125 22 12 20.6875 12 19C12 17.375 13.3125 16 15 16C16.625 16 18 17.375 18 19C18 20.6875 16.625 22 15 22Z"
     fill="#2A7AE4"
     id="path17"
     style="fill:#0000ff"
     inkscape:export-filename="..\..\..\path17.png"
     inkscape:export-xdpi="96"
     inkscape:export-ydpi="96" />
</svg>
